<?xml version="1.0" encoding="utf-8"?>
<svg xmlns="http://www.w3.org/2000/svg" fill="none" height="20" viewBox="0 0 24 20" width="24">
<path d="M21.6001 15.6093H7.85007L7.47007 14.0623H21.4701L24.0001 2.3354H4.55007L4.00007 0H0.700071C0.60683 0.00130145 0.514759 0.0209216 0.429116 0.0577401C0.343473 0.0945585 0.265936 0.147854 0.200934 0.214583C0.135931 0.281311 0.0847354 0.360166 0.0502711 0.446644C0.0158069 0.533122 -0.00125109 0.625528 7.14126e-05 0.718586C-0.00125109 0.811644 0.0158069 0.90405 0.0502711 0.990528C0.0847354 1.07701 0.135931 1.15586 0.200934 1.22259C0.265936 1.28932 0.343473 1.34261 0.429116 1.37943C0.514759 1.41625 0.60683 1.43587 0.700071 1.43717H2.89007L6.53007 16.1083C6.44683 16.1028 6.36331 16.1028 6.28007 16.1083C5.89242 16.0984 5.51061 16.204 5.18343 16.4118C4.85624 16.6195 4.59854 16.9198 4.44326 17.2745C4.28797 17.6291 4.24215 18.0219 4.31165 18.4026C4.38115 18.7834 4.56281 19.1348 4.83342 19.412C5.10404 19.6892 5.45132 19.8796 5.83088 19.9588C6.21044 20.038 6.60506 20.0025 6.96429 19.8568C7.32353 19.7111 7.63108 19.4617 7.84764 19.1407C8.0642 18.8197 8.17994 18.4415 8.18007 18.0545C8.18249 17.7048 8.09283 17.3606 7.92007 17.0564H17.5801C17.4074 17.3442 17.3143 17.6726 17.3102 18.008C17.3062 18.3434 17.3913 18.6739 17.5571 18.9657C17.7228 19.2576 17.9631 19.5003 18.2535 19.6692C18.5439 19.8381 18.874 19.9271 19.2101 19.9271C19.5462 19.9271 19.8763 19.8381 20.1667 19.6692C20.4571 19.5003 20.6974 19.2576 20.8631 18.9657C21.0288 18.6739 21.114 18.3434 21.1099 18.008C21.1059 17.6726 21.0128 17.3442 20.8401 17.0564H21.6001C21.791 17.0564 21.9742 16.9807 22.1092 16.846C22.2442 16.7112 22.3201 16.5284 22.3201 16.3378C22.3201 16.1473 22.2442 15.9645 22.1092 15.8297C21.9742 15.695 21.791 15.6193 21.6001 15.6193V15.6093ZM22.2601 3.78256L20.3401 12.6252H7.11007L4.91007 3.78256H22.2601Z" fill="white"/>
</svg>