<?xml version="1.0" encoding="utf-8"?>
<svg xmlns="http://www.w3.org/2000/svg" fill="none" height="18" viewBox="0 0 26 18" width="26">
<path d="M25.68 1.87C25.5828 1.80034 25.4704 1.75492 25.3521 1.73752C25.2338 1.72013 25.1131 1.73126 25 1.77L18.57 4.08V2.08C18.5726 1.8078 18.5213 1.53777 18.419 1.28553C18.3166 1.03329 18.1653 0.803826 17.9738 0.610414C17.7822 0.417002 17.5542 0.263472 17.303 0.158699C17.0517 0.0539261 16.7822 -1.28274e-05 16.51 2.28818e-09L2.06 2.28818e-09C1.51365 2.28818e-09 0.989685 0.217035 0.60336 0.60336C0.217035 0.989685 0 1.51365 0 2.06L0 15.94C0 16.4863 0.217035 17.0103 0.60336 17.3966C0.989685 17.783 1.51365 18 2.06 18H16.51C17.0563 18 17.5803 17.783 17.9666 17.3966C18.353 17.0103 18.57 16.4863 18.57 15.94V13.94L25 16.23C25.0831 16.2396 25.1669 16.2396 25.25 16.23C25.4042 16.228 25.5542 16.1792 25.68 16.09C25.7782 16.0213 25.8585 15.93 25.9142 15.8239C25.9698 15.7178 25.9993 15.5998 26 15.48V2.48C25.9993 2.36015 25.9698 2.24222 25.9142 2.13609C25.8585 2.02996 25.7782 1.93871 25.68 1.87ZM17.07 15.94C17.07 16.0885 17.011 16.231 16.906 16.336C16.801 16.441 16.6585 16.5 16.51 16.5H2.06C1.91148 16.5 1.76904 16.441 1.66402 16.336C1.559 16.231 1.5 16.0885 1.5 15.94V2.06C1.5 1.91148 1.559 1.76904 1.66402 1.66402C1.76904 1.559 1.91148 1.5 2.06 1.5H16.51C16.6585 1.5 16.801 1.559 16.906 1.66402C17.011 1.76904 17.07 1.91148 17.07 2.06V15.94ZM24.5 14.45L18.57 12.32V5.68L24.5 3.55V14.45Z" fill="white"/>
</svg>