<svg xmlns="http://www.w3.org/2000/svg" width="506" height="448" viewBox="0 0 506 448" fill="none">
<path d="M501.107 91.1155L500.941 90.9743C496.166 87.2327 490.632 85.3501 484.504 85.3501C472.652 85.3501 460.682 92.5744 453.936 98.8104C440.35 113 428.071 126.201 411.563 144.392C406.338 148.722 400.923 153.051 395.175 157.64C371.043 176.96 343.943 198.68 330.309 221.082C331.521 201.456 348.099 137.567 359.5 93.6098C376.934 26.4734 376.459 26.238 374.036 25.085C367.599 22.5671 361.638 21.367 355.842 21.367C338.979 21.367 327.055 32.0034 315.512 42.3103C313.493 44.0988 311.474 45.9107 309.432 47.6521C291.761 62.8772 275.253 80.7144 259.268 97.9868C250.67 107.282 241.787 116.883 232.714 126.084C224.354 135.026 215.779 144.015 207.49 152.722C199.201 161.405 190.65 170.394 182.218 179.384C181.031 170.865 179.724 162.299 178.466 153.993C177.112 145.074 175.71 135.826 174.452 126.766C173.597 117.942 173.074 107.494 172.504 96.4101C170.77 62.5713 168.846 24.2378 157.184 2.7297L156.852 2.11787L156.163 1.90608C151.959 0.635361 147.565 0 143.052 0C134.692 0 127.899 2.1414 123.671 3.92982C118.042 6.25948 115.524 10.8717 113.624 15.484L113.529 15.7428C103.458 60.924 97.2353 77.2081 89.3498 97.8456C86.5471 105.164 83.3881 113.447 79.7779 123.754C55.195 175.524 35.7663 216.446 9.66329 272.287L9.71079 272.311C8.83199 273.982 7.5494 278.382 4.12918 290.101C1.01772 305.562 -2.49751 343.471 2.51407 346.601V346.601C5.31676 348.295 9.78205 349.331 14.1286 349.331C20.494 349.331 25.0781 347.119 26.7407 343.142C45.6707 286.924 69.5885 237.907 94.9314 186.02C106.047 163.264 117.519 139.756 128.421 115.777C126.093 192.938 132.221 238.66 146.686 251.721C152.315 256.686 161.982 258.451 169.155 258.451C175.14 258.451 180.033 257.298 182.978 255.227L183.406 254.921L183.596 254.427C192.93 229.389 206.872 212.469 215.186 202.351C217.679 199.339 219.627 196.938 221.005 194.962C227.228 185.902 288.459 123.166 311.403 99.6575L311.427 99.634C306.487 116.506 301.522 133.379 296.558 150.251L295.893 152.51C269.007 244.449 265.088 297.678 284.303 310.762C289.623 314.245 294.539 315.868 299.812 315.868C302.092 315.868 304.491 315.586 307.532 314.951C323.896 311.774 337.221 290.125 348.978 271.04C352.327 265.581 355.51 260.451 358.455 256.262C386.149 215.834 413.345 187.29 439.377 171.336C430.683 199.268 422.275 227.294 414.105 254.544L392.538 356.508L392.135 359.85C390.686 372.11 388.738 388.747 383.085 398.63C348.242 394.959 312.424 388.276 277.771 381.828C225.541 372.11 176.209 362.909 129.371 362.909C111.771 362.909 95.9765 364.203 81.0367 366.862C78.0203 367.403 74.9801 367.662 71.7024 367.662C66.9521 367.662 62.4393 367.097 58.0927 366.58C53.9599 366.062 50.0409 365.591 46.0744 365.591C39.139 365.591 33.3673 367.192 27.952 370.651C26.2419 371.333 25.6243 373.051 26.1469 375.734V375.804L25.8856 376.698L26.9782 377.357C56.0738 395.124 95.3352 399.03 126.877 402.183C129.537 402.442 132.15 402.725 134.596 402.96C198.559 412.961 263.544 422.868 324.324 432.069C333.207 433.104 344.418 435.928 356.317 438.94C373.988 443.388 392.253 448 407.027 448C416.361 448 423.225 446.141 427.952 442.329C436.669 435.458 437.999 418.515 438.949 406.137L439.091 404.348C444.008 373.451 448.782 341.848 453.414 311.303L455.623 296.666C461.75 252.003 475.906 204.563 489.564 158.675L491.464 152.298C492.913 147.639 494.86 142.65 496.903 137.379C503.862 119.495 511.059 101.046 501.107 91.1155" fill="white"/>
</svg>