<?xml version="1.0" encoding="utf-8"?>
<svg xmlns="http://www.w3.org/2000/svg" fill="none" height="20" viewBox="0 0 20 20" width="20">
<path d="M19.78 18.74L15.33 14.44C16.8611 12.8728 17.7219 10.771 17.73 8.58001C17.6879 6.26718 16.7307 4.06536 15.068 2.45707C13.4054 0.848787 11.173 -0.0347768 8.86 1.32184e-05C6.54876 -0.0321063 4.31892 0.852643 2.65844 2.46064C0.997968 4.06864 0.0420919 6.26894 0 8.58001C0.0420919 10.8911 0.997968 13.0914 2.65844 14.6994C4.31892 16.3074 6.54876 17.1921 8.86 17.16C10.78 17.1645 12.6512 16.5548 14.2 15.42L18.7 19.78C18.7711 19.8504 18.8554 19.9061 18.9481 19.9439C19.0407 19.9816 19.1399 20.0007 19.24 20C19.3401 20.0013 19.4395 19.9824 19.5323 19.9446C19.625 19.9069 19.7092 19.8509 19.78 19.78C19.8489 19.7121 19.9037 19.6311 19.941 19.5419C19.9784 19.4526 19.9977 19.3568 19.9977 19.26C19.9977 19.1632 19.9784 19.0674 19.941 18.9782C19.9037 18.8889 19.8489 18.8079 19.78 18.74ZM1.52 8.58001C1.55158 6.66417 2.34237 4.83922 3.71865 3.50606C5.09493 2.17291 6.94413 1.4406 8.86 1.47001C10.7768 1.44058 12.6271 2.17258 14.0049 3.50545C15.3828 4.83833 16.1758 6.66327 16.21 8.58001C16.1758 10.4968 15.3828 12.3217 14.0049 13.6546C12.6271 14.9874 10.7768 15.7194 8.86 15.69C6.94413 15.7194 5.09493 14.9871 3.71865 13.654C2.34237 12.3208 1.55158 10.4959 1.52 8.58001Z" fill="white"/>
</svg>